<?xml version="1.0" encoding="UTF-8" standalone="no"?>
<!DOCTYPE svg PUBLIC "-//W3C//DTD SVG 1.1//EN"
 "http://www.w3.org/Graphics/SVG/1.1/DTD/svg11.dtd">
<!-- Generated by graphviz version 7.1.0 (20230121.1956)
 -->
<!-- Title: G Pages: 1 -->
<svg width="628pt" height="1176pt"
 viewBox="0.00 0.00 627.78 1176.00" xmlns="http://www.w3.org/2000/svg" xmlns:xlink="http://www.w3.org/1999/xlink">
<g id="graph0" class="graph" transform="scale(1 1) rotate(0) translate(4 1172)">
<title>G</title>
<polygon fill="white" stroke="none" points="-4,4 -4,-1172 623.78,-1172 623.78,4 -4,4"/>
<!-- :besluit -->
<g id="node1" class="node">
<title>:besluit</title>
<polygon fill="#f2f2f2" stroke="black" points="28.75,-485.67 28.75,-521.67 84.75,-521.67 84.75,-485.67 28.75,-485.67"/>
<text text-anchor="middle" x="56.75" y="-499.97" font-family="Times,serif" font-size="14.00">:besluit</text>
</g>
<!-- :openzaak -->
<g id="node2" class="node">
<title>:openzaak</title>
<polygon fill="#f2f2f2" stroke="black" points="134.75,-522.5 134.75,-558.5 205.75,-558.5 205.75,-522.5 134.75,-522.5"/>
<text text-anchor="middle" x="170.25" y="-536.8" font-family="Times,serif" font-size="14.00">:openzaak</text>
</g>
<!-- :besluit&#45;&gt;:openzaak -->
<g id="edge1" class="edge">
<title>:besluit&#45;&gt;:openzaak</title>
<path fill="none" stroke="black" d="M74.41,-521.45C74.41,-527.14 74.41,-532 74.41,-532 74.41,-532 128.32,-532 128.32,-532"/>
<polygon fill="black" stroke="black" points="128.32,-533.75 133.32,-532 128.32,-530.25 128.32,-533.75"/>
</g>
<!-- :resource:openzaak&#45;resource -->
<g id="node3" class="node">
<title>:resource:openzaak&#45;resource</title>
<polygon fill="#f2f2f2" stroke="black" points="47.7,-174.5 47.7,-210.5 218.7,-210.5 218.7,-174.5 47.7,-174.5"/>
<text text-anchor="middle" x="133.2" y="-188.8" font-family="Times,serif" font-size="14.00">:resource:openzaak&#45;resource</text>
</g>
<!-- :besluit&#45;&gt;:resource:openzaak&#45;resource -->
<g id="edge2" class="edge">
<title>:besluit&#45;&gt;:resource:openzaak&#45;resource</title>
<path fill="none" stroke="black" d="M66.22,-486.05C66.22,-486.05 66.22,-216.83 66.22,-216.83"/>
<polygon fill="black" stroke="black" points="67.97,-216.83 66.22,-211.83 64.47,-216.83 67.97,-216.83"/>
</g>
<!-- :connector -->
<g id="node4" class="node">
<title>:connector</title>
<polygon fill="#f2f2f2" stroke="black" points="41.06,-783.5 41.06,-819.5 115.06,-819.5 115.06,-783.5 41.06,-783.5"/>
<text text-anchor="middle" x="78.06" y="-797.8" font-family="Times,serif" font-size="14.00">:connector</text>
</g>
<!-- :openzaak&#45;&gt;:connector -->
<g id="edge3" class="edge">
<title>:openzaak&#45;&gt;:connector</title>
<path fill="none" stroke="black" d="M134.94,-553C100.28,-553 52.57,-553 52.57,-553 52.57,-553 52.57,-777.11 52.57,-777.11"/>
<polygon fill="black" stroke="black" points="50.82,-777.11 52.57,-782.11 54.32,-777.11 50.82,-777.11"/>
</g>
<!-- :process&#45;document -->
<g id="node5" class="node">
<title>:process&#45;document</title>
<polygon fill="#f2f2f2" stroke="black" points="165.07,-870.5 165.07,-906.5 284.07,-906.5 284.07,-870.5 165.07,-870.5"/>
<text text-anchor="middle" x="224.57" y="-884.8" font-family="Times,serif" font-size="14.00">:process&#45;document</text>
</g>
<!-- :openzaak&#45;&gt;:process&#45;document -->
<g id="edge4" class="edge">
<title>:openzaak&#45;&gt;:process&#45;document</title>
<path fill="none" stroke="black" d="M134.88,-548C95.39,-548 36.96,-548 36.96,-548 36.96,-548 36.96,-882 36.96,-882 36.96,-882 158.7,-882 158.7,-882"/>
<polygon fill="black" stroke="black" points="158.7,-883.75 163.7,-882 158.7,-880.25 158.7,-883.75"/>
</g>
<!-- :plugin -->
<g id="node6" class="node">
<title>:plugin</title>
<polygon fill="#f2f2f2" stroke="black" points="255.76,-522.5 255.76,-558.5 310.76,-558.5 310.76,-522.5 255.76,-522.5"/>
<text text-anchor="middle" x="283.26" y="-536.8" font-family="Times,serif" font-size="14.00">:plugin</text>
</g>
<!-- :openzaak&#45;&gt;:plugin -->
<g id="edge5" class="edge">
<title>:openzaak&#45;&gt;:plugin</title>
<path fill="none" stroke="black" d="M205.7,-540C205.7,-540 249.31,-540 249.31,-540"/>
<polygon fill="black" stroke="black" points="249.31,-541.75 254.31,-540 249.31,-538.25 249.31,-541.75"/>
</g>
<!-- :zgw:documenten&#45;api -->
<g id="node7" class="node">
<title>:zgw:documenten&#45;api</title>
<polygon fill="#f2f2f2" stroke="black" points="127.82,-261.5 127.82,-297.5 261.82,-297.5 261.82,-261.5 127.82,-261.5"/>
<text text-anchor="middle" x="194.82" y="-275.8" font-family="Times,serif" font-size="14.00">:zgw:documenten&#45;api</text>
</g>
<!-- :openzaak&#45;&gt;:zgw:documenten&#45;api -->
<g id="edge6" class="edge">
<title>:openzaak&#45;&gt;:zgw:documenten&#45;api</title>
<path fill="none" stroke="black" d="M148.21,-522.56C148.21,-522.56 148.21,-303.73 148.21,-303.73"/>
<polygon fill="black" stroke="black" points="149.96,-303.73 148.21,-298.73 146.46,-303.73 149.96,-303.73"/>
</g>
<!-- :zgw:catalogi&#45;api -->
<g id="node8" class="node">
<title>:zgw:catalogi&#45;api</title>
<polygon fill="#f2f2f2" stroke="black" points="268.72,-348.5 268.72,-384.5 378.72,-384.5 378.72,-348.5 268.72,-348.5"/>
<text text-anchor="middle" x="323.72" y="-362.8" font-family="Times,serif" font-size="14.00">:zgw:catalogi&#45;api</text>
</g>
<!-- :openzaak&#45;&gt;:zgw:catalogi&#45;api -->
<g id="edge7" class="edge">
<title>:openzaak&#45;&gt;:zgw:catalogi&#45;api</title>
<path fill="none" stroke="black" d="M175.14,-522.81C175.14,-478.44 175.14,-366 175.14,-366 175.14,-366 262.3,-366 262.3,-366"/>
<polygon fill="black" stroke="black" points="262.3,-367.75 267.3,-366 262.3,-364.25 262.3,-367.75"/>
</g>
<!-- :zgw:besluiten&#45;api -->
<g id="node9" class="node">
<title>:zgw:besluiten&#45;api</title>
<polygon fill="#f2f2f2" stroke="black" points="89.75,-609.5 89.75,-645.5 205.75,-645.5 205.75,-609.5 89.75,-609.5"/>
<text text-anchor="middle" x="147.75" y="-623.8" font-family="Times,serif" font-size="14.00">:zgw:besluiten&#45;api</text>
</g>
<!-- :openzaak&#45;&gt;:zgw:besluiten&#45;api -->
<g id="edge8" class="edge">
<title>:openzaak&#45;&gt;:zgw:besluiten&#45;api</title>
<path fill="none" stroke="black" d="M170.25,-558.11C170.25,-558.11 170.25,-603.11 170.25,-603.11"/>
<polygon fill="black" stroke="black" points="168.5,-603.11 170.25,-608.11 172,-603.11 168.5,-603.11"/>
</g>
<!-- :resource:openzaak&#45;resource&#45;&gt;:openzaak -->
<g id="edge10" class="edge">
<title>:resource:openzaak&#45;resource&#45;&gt;:openzaak</title>
<path fill="none" stroke="black" d="M102.44,-210.48C102.44,-279.96 102.44,-527 102.44,-527 102.44,-527 128.24,-527 128.24,-527"/>
<polygon fill="black" stroke="black" points="128.24,-528.75 133.24,-527 128.24,-525.25 128.24,-528.75"/>
</g>
<!-- :resource:openzaak&#45;resource&#45;&gt;:zgw:documenten&#45;api -->
<g id="edge11" class="edge">
<title>:resource:openzaak&#45;resource&#45;&gt;:zgw:documenten&#45;api</title>
<path fill="none" stroke="black" d="M173.26,-210.11C173.26,-210.11 173.26,-255.11 173.26,-255.11"/>
<polygon fill="black" stroke="black" points="171.51,-255.11 173.26,-260.11 175.01,-255.11 171.51,-255.11"/>
</g>
<!-- :resource -->
<g id="node10" class="node">
<title>:resource</title>
<polygon fill="#f2f2f2" stroke="black" points="0,-87.5 0,-123.5 66,-123.5 66,-87.5 0,-87.5"/>
<text text-anchor="middle" x="33" y="-101.8" font-family="Times,serif" font-size="14.00">:resource</text>
</g>
<!-- :resource:openzaak&#45;resource&#45;&gt;:resource -->
<g id="edge9" class="edge">
<title>:resource:openzaak&#45;resource&#45;&gt;:resource</title>
<path fill="none" stroke="black" d="M56.85,-174.89C56.85,-174.89 56.85,-129.89 56.85,-129.89"/>
<polygon fill="black" stroke="black" points="58.6,-129.89 56.85,-124.89 55.1,-129.89 58.6,-129.89"/>
</g>
<!-- :zgw:zaken&#45;api -->
<g id="node11" class="node">
<title>:zgw:zaken&#45;api</title>
<polygon fill="#f2f2f2" stroke="black" points="188.6,-435.5 188.6,-471.5 287.6,-471.5 287.6,-435.5 188.6,-435.5"/>
<text text-anchor="middle" x="238.1" y="-449.8" font-family="Times,serif" font-size="14.00">:zgw:zaken&#45;api</text>
</g>
<!-- :resource:openzaak&#45;resource&#45;&gt;:zgw:zaken&#45;api -->
<g id="edge12" class="edge">
<title>:resource:openzaak&#45;resource&#45;&gt;:zgw:zaken&#45;api</title>
<path fill="none" stroke="black" d="M115.13,-210.4C115.13,-268.33 115.13,-447 115.13,-447 115.13,-447 182.28,-447 182.28,-447"/>
<polygon fill="black" stroke="black" points="182.28,-448.75 187.28,-447 182.28,-445.25 182.28,-448.75"/>
</g>
<!-- :zgw:documenten&#45;api&#45;&gt;:zgw:catalogi&#45;api -->
<g id="edge14" class="edge">
<title>:zgw:documenten&#45;api&#45;&gt;:zgw:catalogi&#45;api</title>
<path fill="none" stroke="black" d="M261.71,-279C274.33,-279 283.67,-279 283.67,-279 283.67,-279 283.67,-342.28 283.67,-342.28"/>
<polygon fill="black" stroke="black" points="281.92,-342.28 283.67,-347.28 285.42,-342.28 281.92,-342.28"/>
</g>
<!-- :resource:temporary&#45;resource&#45;storage -->
<g id="node12" class="node">
<title>:resource:temporary&#45;resource&#45;storage</title>
<polygon fill="#f2f2f2" stroke="black" points="64.07,-696.5 64.07,-732.5 284.07,-732.5 284.07,-696.5 64.07,-696.5"/>
<text text-anchor="middle" x="174.07" y="-710.8" font-family="Times,serif" font-size="14.00">:resource:temporary&#45;resource&#45;storage</text>
</g>
<!-- :zgw:documenten&#45;api&#45;&gt;:resource:temporary&#45;resource&#45;storage -->
<g id="edge13" class="edge">
<title>:zgw:documenten&#45;api&#45;&gt;:resource:temporary&#45;resource&#45;storage</title>
<path fill="none" stroke="black" d="M161.67,-297.47C161.67,-346.33 161.67,-478 161.67,-478 161.67,-478 218.25,-478 218.25,-478 218.25,-478 218.25,-690.21 218.25,-690.21"/>
<polygon fill="black" stroke="black" points="216.5,-690.21 218.25,-695.21 220,-690.21 216.5,-690.21"/>
</g>
<!-- :core -->
<g id="node13" class="node">
<title>:core</title>
<polygon fill="#f2f2f2" stroke="black" points="344.02,-87.5 344.02,-123.5 398.02,-123.5 398.02,-87.5 344.02,-87.5"/>
<text text-anchor="middle" x="371.02" y="-101.8" font-family="Times,serif" font-size="14.00">:core</text>
</g>
<!-- :zgw:catalogi&#45;api&#45;&gt;:core -->
<g id="edge15" class="edge">
<title>:zgw:catalogi&#45;api&#45;&gt;:core</title>
<path fill="none" stroke="black" d="M378.44,-366C448.14,-366 559.65,-366 559.65,-366 559.65,-366 559.65,-140 559.65,-140 559.65,-140 380.02,-140 380.02,-140 380.02,-140 380.02,-129.67 380.02,-129.67"/>
<polygon fill="black" stroke="black" points="381.77,-129.67 380.02,-124.67 378.27,-129.67 381.77,-129.67"/>
</g>
<!-- :document -->
<g id="node14" class="node">
<title>:document</title>
<polygon fill="#f2f2f2" stroke="black" points="220.01,-87.5 220.01,-123.5 294.01,-123.5 294.01,-87.5 220.01,-87.5"/>
<text text-anchor="middle" x="257.01" y="-101.8" font-family="Times,serif" font-size="14.00">:document</text>
</g>
<!-- :zgw:catalogi&#45;api&#45;&gt;:document -->
<g id="edge16" class="edge">
<title>:zgw:catalogi&#45;api&#45;&gt;:document</title>
<path fill="none" stroke="black" d="M297.75,-348.63C297.75,-312.89 297.75,-236 297.75,-236 297.75,-236 240.91,-236 240.91,-236 240.91,-236 240.91,-129.89 240.91,-129.89"/>
<polygon fill="black" stroke="black" points="242.66,-129.89 240.91,-124.89 239.16,-129.89 242.66,-129.89"/>
</g>
<!-- :zgw -->
<g id="node15" class="node">
<title>:zgw</title>
<polygon fill="#f2f2f2" stroke="black" points="360.76,-609.5 360.76,-645.5 414.76,-645.5 414.76,-609.5 360.76,-609.5"/>
<text text-anchor="middle" x="387.76" y="-623.8" font-family="Times,serif" font-size="14.00">:zgw</text>
</g>
<!-- :zgw:catalogi&#45;api&#45;&gt;:zgw -->
<g id="edge17" class="edge">
<title>:zgw:catalogi&#45;api&#45;&gt;:zgw</title>
<path fill="none" stroke="black" d="M329.42,-384.19C329.42,-441.43 329.42,-618 329.42,-618 329.42,-618 354.47,-618 354.47,-618"/>
<polygon fill="black" stroke="black" points="354.47,-619.75 359.47,-618 354.47,-616.25 354.47,-619.75"/>
</g>
<!-- :zgw:besluiten&#45;api&#45;&gt;:zgw:zaken&#45;api -->
<g id="edge18" class="edge">
<title>:zgw:besluiten&#45;api&#45;&gt;:zgw:zaken&#45;api</title>
<path fill="none" stroke="black" d="M205.4,-636C219.56,-636 230.76,-636 230.76,-636 230.76,-636 230.76,-477.84 230.76,-477.84"/>
<polygon fill="black" stroke="black" points="232.51,-477.84 230.76,-472.84 229.01,-477.84 232.51,-477.84"/>
</g>
<!-- :zgw:zaken&#45;api&#45;&gt;:process&#45;document -->
<g id="edge19" class="edge">
<title>:zgw:zaken&#45;api&#45;&gt;:process&#45;document</title>
<path fill="none" stroke="black" d="M188.69,-459C124.12,-459 19.16,-459 19.16,-459 19.16,-459 19.16,-894 19.16,-894 19.16,-894 158.65,-894 158.65,-894"/>
<polygon fill="black" stroke="black" points="158.65,-895.75 163.65,-894 158.65,-892.25 158.65,-895.75"/>
</g>
<!-- :zgw:zaken&#45;api&#45;&gt;:zgw:documenten&#45;api -->
<g id="edge22" class="edge">
<title>:zgw:zaken&#45;api&#45;&gt;:zgw:documenten&#45;api</title>
<path fill="none" stroke="black" d="M213,-435.53C213,-435.53 213,-303.88 213,-303.88"/>
<polygon fill="black" stroke="black" points="214.75,-303.88 213,-298.88 211.25,-303.88 214.75,-303.88"/>
</g>
<!-- :zgw:zaken&#45;api&#45;&gt;:zgw:catalogi&#45;api -->
<g id="edge21" class="edge">
<title>:zgw:zaken&#45;api&#45;&gt;:zgw:catalogi&#45;api</title>
<path fill="none" stroke="black" d="M278.16,-435.89C278.16,-435.89 278.16,-390.89 278.16,-390.89"/>
<polygon fill="black" stroke="black" points="279.91,-390.89 278.16,-385.89 276.41,-390.89 279.91,-390.89"/>
</g>
<!-- :zgw:zaken&#45;api&#45;&gt;:resource:temporary&#45;resource&#45;storage -->
<g id="edge20" class="edge">
<title>:zgw:zaken&#45;api&#45;&gt;:resource:temporary&#45;resource&#45;storage</title>
<path fill="none" stroke="black" d="M243.26,-471.44C243.26,-471.44 243.26,-690.27 243.26,-690.27"/>
<polygon fill="black" stroke="black" points="241.51,-690.27 243.26,-695.27 245.01,-690.27 241.51,-690.27"/>
</g>
<!-- :zgw&#45;&gt;:plugin -->
<g id="edge25" class="edge">
<title>:zgw&#45;&gt;:plugin</title>
<path fill="none" stroke="black" d="M361.05,-627C335.84,-627 301.86,-627 301.86,-627 301.86,-627 301.86,-564.94 301.86,-564.94"/>
<polygon fill="black" stroke="black" points="303.61,-564.94 301.86,-559.94 300.11,-564.94 303.61,-564.94"/>
</g>
<!-- :klant -->
<g id="node16" class="node">
<title>:klant</title>
<polygon fill="#f2f2f2" stroke="black" points="116.01,-87.5 116.01,-123.5 170.01,-123.5 170.01,-87.5 116.01,-87.5"/>
<text text-anchor="middle" x="143.01" y="-101.8" font-family="Times,serif" font-size="14.00">:klant</text>
</g>
<!-- :klant&#45;&gt;:openzaak -->
<g id="edge23" class="edge">
<title>:klant&#45;&gt;:openzaak</title>
<path fill="none" stroke="black" d="M143.01,-123.22C143.01,-138.12 143.01,-157 143.01,-157 143.01,-157 9.58,-157 9.58,-157 9.58,-157 9.58,-537 9.58,-537 9.58,-537 128.48,-537 128.48,-537"/>
<polygon fill="black" stroke="black" points="128.48,-538.75 133.48,-537 128.48,-535.25 128.48,-538.75"/>
</g>
<!-- :objects&#45;api -->
<g id="node17" class="node">
<title>:objects&#45;api</title>
<polygon fill="#f2f2f2" stroke="black" points="89.16,-0.5 89.16,-36.5 169.16,-36.5 169.16,-0.5 89.16,-0.5"/>
<text text-anchor="middle" x="129.16" y="-14.8" font-family="Times,serif" font-size="14.00">:objects&#45;api</text>
</g>
<!-- :objects&#45;api&#45;&gt;:resource:openzaak&#45;resource -->
<g id="edge24" class="edge">
<title>:objects&#45;api&#45;&gt;:resource:openzaak&#45;resource</title>
<path fill="none" stroke="black" d="M102.58,-36.47C102.58,-36.47 102.58,-168.12 102.58,-168.12"/>
<polygon fill="black" stroke="black" points="100.83,-168.12 102.58,-173.12 104.33,-168.12 100.83,-168.12"/>
</g>
<!-- :search -->
<g id="node18" class="node">
<title>:search</title>
<polygon fill="#f2f2f2" stroke="black" points="473.09,-609.5 473.09,-645.5 528.09,-645.5 528.09,-609.5 473.09,-609.5"/>
<text text-anchor="middle" x="500.59" y="-623.8" font-family="Times,serif" font-size="14.00">:search</text>
</g>
<!-- :search&#45;&gt;:zgw -->
<g id="edge26" class="edge">
<title>:search&#45;&gt;:zgw</title>
<path fill="none" stroke="black" d="M473.28,-627C473.28,-627 420.95,-627 420.95,-627"/>
<polygon fill="black" stroke="black" points="420.95,-625.25 415.95,-627 420.95,-628.75 420.95,-625.25"/>
</g>
<!-- :plugin&#45;authentication:notificaties&#45;api&#45;authentication -->
<g id="node19" class="node">
<title>:plugin&#45;authentication:notificaties&#45;api&#45;authentication</title>
<polygon fill="#f2f2f2" stroke="black" points="94.78,-957.5 94.78,-993.5 396.78,-993.5 396.78,-957.5 94.78,-957.5"/>
<text text-anchor="middle" x="245.78" y="-971.8" font-family="Times,serif" font-size="14.00">:plugin&#45;authentication:notificaties&#45;api&#45;authentication</text>
</g>
<!-- :plugin&#45;authentication:notificaties&#45;api&#45;authentication&#45;&gt;:openzaak -->
<g id="edge27" class="edge">
<title>:plugin&#45;authentication:notificaties&#45;api&#45;authentication&#45;&gt;:openzaak</title>
<path fill="none" stroke="black" d="M95.01,-975C60.05,-975 32.85,-975 32.85,-975 32.85,-975 32.85,-543 32.85,-543 32.85,-543 128.35,-543 128.35,-543"/>
<polygon fill="black" stroke="black" points="128.35,-544.75 133.35,-543 128.35,-541.25 128.35,-544.75"/>
</g>
<!-- :zgw:notificaties&#45;api -->
<g id="node20" class="node">
<title>:zgw:notificaties&#45;api</title>
<polygon fill="#f2f2f2" stroke="black" points="252.52,-1044.5 252.52,-1080.5 380.52,-1080.5 380.52,-1044.5 252.52,-1044.5"/>
<text text-anchor="middle" x="316.52" y="-1058.8" font-family="Times,serif" font-size="14.00">:zgw:notificaties&#45;api</text>
</g>
<!-- :plugin&#45;authentication:notificaties&#45;api&#45;authentication&#45;&gt;:zgw:notificaties&#45;api -->
<g id="edge28" class="edge">
<title>:plugin&#45;authentication:notificaties&#45;api&#45;authentication&#45;&gt;:zgw:notificaties&#45;api</title>
<path fill="none" stroke="black" d="M316.52,-993.11C316.52,-993.11 316.52,-1038.11 316.52,-1038.11"/>
<polygon fill="black" stroke="black" points="314.77,-1038.11 316.52,-1043.11 318.27,-1038.11 314.77,-1038.11"/>
</g>
<!-- :zgw:notificaties&#45;api&#45;&gt;:plugin -->
<g id="edge33" class="edge">
<title>:zgw:notificaties&#45;api&#45;&gt;:plugin</title>
<path fill="none" stroke="black" d="M380.38,-1062C396.8,-1062 409.93,-1062 409.93,-1062 409.93,-1062 409.93,-758 409.93,-758 409.93,-758 292.96,-758 292.96,-758 292.96,-758 292.96,-564.81 292.96,-564.81"/>
<polygon fill="black" stroke="black" points="294.71,-564.81 292.96,-559.81 291.21,-564.81 294.71,-564.81"/>
</g>
<!-- :contract -->
<g id="node24" class="node">
<title>:contract</title>
<polygon fill="#f2f2f2" stroke="black" points="301.52,-1131.5 301.52,-1167.5 365.52,-1167.5 365.52,-1131.5 301.52,-1131.5"/>
<text text-anchor="middle" x="333.52" y="-1145.8" font-family="Times,serif" font-size="14.00">:contract</text>
</g>
<!-- :zgw:notificaties&#45;api&#45;&gt;:contract -->
<g id="edge32" class="edge">
<title>:zgw:notificaties&#45;api&#45;&gt;:contract</title>
<path fill="none" stroke="black" d="M333.52,-1080.11C333.52,-1080.11 333.52,-1125.11 333.52,-1125.11"/>
<polygon fill="black" stroke="black" points="331.77,-1125.11 333.52,-1130.11 335.27,-1125.11 331.77,-1125.11"/>
</g>
<!-- :plugin&#45;authentication:objecten&#45;api&#45;authentication -->
<g id="node21" class="node">
<title>:plugin&#45;authentication:objecten&#45;api&#45;authentication</title>
<polygon fill="#f2f2f2" stroke="black" points="269.59,-174.5 269.59,-210.5 556.59,-210.5 556.59,-174.5 269.59,-174.5"/>
<text text-anchor="middle" x="413.09" y="-188.8" font-family="Times,serif" font-size="14.00">:plugin&#45;authentication:objecten&#45;api&#45;authentication</text>
</g>
<!-- :plugin&#45;authentication:objecten&#45;api&#45;authentication&#45;&gt;:core -->
<g id="edge29" class="edge">
<title>:plugin&#45;authentication:objecten&#45;api&#45;authentication&#45;&gt;:core</title>
<path fill="none" stroke="black" d="M362.02,-174.89C362.02,-174.89 362.02,-129.89 362.02,-129.89"/>
<polygon fill="black" stroke="black" points="363.77,-129.89 362.02,-124.89 360.27,-129.89 363.77,-129.89"/>
</g>
<!-- :zgw:objecten&#45;api -->
<g id="node22" class="node">
<title>:zgw:objecten&#45;api</title>
<polygon fill="#f2f2f2" stroke="black" points="311.83,-261.5 311.83,-297.5 424.83,-297.5 424.83,-261.5 311.83,-261.5"/>
<text text-anchor="middle" x="368.33" y="-275.8" font-family="Times,serif" font-size="14.00">:zgw:objecten&#45;api</text>
</g>
<!-- :plugin&#45;authentication:objecten&#45;api&#45;authentication&#45;&gt;:zgw:objecten&#45;api -->
<g id="edge30" class="edge">
<title>:plugin&#45;authentication:objecten&#45;api&#45;authentication&#45;&gt;:zgw:objecten&#45;api</title>
<path fill="none" stroke="black" d="M368.33,-210.11C368.33,-210.11 368.33,-255.11 368.33,-255.11"/>
<polygon fill="black" stroke="black" points="366.58,-255.11 368.33,-260.11 370.08,-255.11 366.58,-255.11"/>
</g>
<!-- :zgw:objecttypen&#45;api -->
<g id="node23" class="node">
<title>:zgw:objecttypen&#45;api</title>
<polygon fill="#f2f2f2" stroke="black" points="337.61,-435.5 337.61,-471.5 468.61,-471.5 468.61,-435.5 337.61,-435.5"/>
<text text-anchor="middle" x="403.11" y="-449.8" font-family="Times,serif" font-size="14.00">:zgw:objecttypen&#45;api</text>
</g>
<!-- :plugin&#45;authentication:objecten&#45;api&#45;authentication&#45;&gt;:zgw:objecttypen&#45;api -->
<g id="edge31" class="edge">
<title>:plugin&#45;authentication:objecten&#45;api&#45;authentication&#45;&gt;:zgw:objecttypen&#45;api</title>
<path fill="none" stroke="black" d="M446.72,-210.44C446.72,-210.44 446.72,-429.27 446.72,-429.27"/>
<polygon fill="black" stroke="black" points="444.97,-429.27 446.72,-434.27 448.47,-429.27 444.97,-429.27"/>
</g>
<!-- :zgw:objecten&#45;api&#45;&gt;:plugin -->
<g id="edge40" class="edge">
<title>:zgw:objecten&#45;api&#45;&gt;:plugin</title>
<path fill="none" stroke="black" d="M394.09,-297.37C394.09,-333.11 394.09,-410 394.09,-410 394.09,-410 295.32,-410 295.32,-410 295.32,-410 295.32,-516.11 295.32,-516.11"/>
<polygon fill="black" stroke="black" points="293.57,-516.11 295.32,-521.11 297.07,-516.11 293.57,-516.11"/>
</g>
<!-- :zgw:objecten&#45;api&#45;&gt;:zgw:zaken&#45;api -->
<g id="edge42" class="edge">
<title>:zgw:objecten&#45;api&#45;&gt;:zgw:zaken&#45;api</title>
<path fill="none" stroke="black" d="M345.27,-297.44C345.27,-309.43 345.27,-323 345.27,-323 345.27,-323 237.41,-323 237.41,-323 237.41,-323 237.41,-429.11 237.41,-429.11"/>
<polygon fill="black" stroke="black" points="235.66,-429.11 237.41,-434.11 239.16,-429.11 235.66,-429.11"/>
</g>
<!-- :zgw:objecten&#45;api&#45;&gt;:zgw:objecttypen&#45;api -->
<g id="edge43" class="edge">
<title>:zgw:objecten&#45;api&#45;&gt;:zgw:objecttypen&#45;api</title>
<path fill="none" stroke="black" d="M409.46,-297.47C409.46,-297.47 409.46,-429.12 409.46,-429.12"/>
<polygon fill="black" stroke="black" points="407.71,-429.12 409.46,-434.12 411.21,-429.12 407.71,-429.12"/>
</g>
<!-- :form -->
<g id="node27" class="node">
<title>:form</title>
<polygon fill="#f2f2f2" stroke="black" points="448.02,-87.5 448.02,-123.5 502.02,-123.5 502.02,-87.5 448.02,-87.5"/>
<text text-anchor="middle" x="475.02" y="-101.8" font-family="Times,serif" font-size="14.00">:form</text>
</g>
<!-- :zgw:objecten&#45;api&#45;&gt;:form -->
<g id="edge41" class="edge">
<title>:zgw:objecten&#45;api&#45;&gt;:form</title>
<path fill="none" stroke="black" d="M424.81,-273C482.21,-273 562.72,-273 562.72,-273 562.72,-273 562.72,-105 562.72,-105 562.72,-105 508.32,-105 508.32,-105"/>
<polygon fill="black" stroke="black" points="508.32,-103.25 503.32,-105 508.32,-106.75 508.32,-103.25"/>
</g>
<!-- :zgw:objecttypen&#45;api&#45;&gt;:plugin -->
<g id="edge44" class="edge">
<title>:zgw:objecttypen&#45;api&#45;&gt;:plugin</title>
<path fill="none" stroke="black" d="M337.76,-447C318.77,-447 303.04,-447 303.04,-447 303.04,-447 303.04,-516.4 303.04,-516.4"/>
<polygon fill="black" stroke="black" points="301.29,-516.4 303.04,-521.4 304.79,-516.4 301.29,-516.4"/>
</g>
<!-- :zgw:object&#45;management -->
<g id="node25" class="node">
<title>:zgw:object&#45;management</title>
<polygon fill="#f2f2f2" stroke="black" points="360.77,-522.5 360.77,-558.5 515.77,-558.5 515.77,-522.5 360.77,-522.5"/>
<text text-anchor="middle" x="438.27" y="-536.8" font-family="Times,serif" font-size="14.00">:zgw:object&#45;management</text>
</g>
<!-- :zgw:object&#45;management&#45;&gt;:zgw -->
<g id="edge37" class="edge">
<title>:zgw:object&#45;management&#45;&gt;:zgw</title>
<path fill="none" stroke="black" d="M387.77,-558.11C387.77,-558.11 387.77,-603.11 387.77,-603.11"/>
<polygon fill="black" stroke="black" points="386.02,-603.11 387.77,-608.11 389.52,-603.11 386.02,-603.11"/>
</g>
<!-- :zgw:object&#45;management&#45;&gt;:search -->
<g id="edge35" class="edge">
<title>:zgw:object&#45;management&#45;&gt;:search</title>
<path fill="none" stroke="black" d="M494.43,-558.11C494.43,-558.11 494.43,-603.11 494.43,-603.11"/>
<polygon fill="black" stroke="black" points="492.68,-603.11 494.43,-608.11 496.18,-603.11 492.68,-603.11"/>
</g>
<!-- :zgw:object&#45;management&#45;&gt;:plugin&#45;authentication:objecten&#45;api&#45;authentication -->
<g id="edge36" class="edge">
<title>:zgw:object&#45;management&#45;&gt;:plugin&#45;authentication:objecten&#45;api&#45;authentication</title>
<path fill="none" stroke="black" d="M500.05,-522.76C500.05,-522.76 500.05,-216.71 500.05,-216.71"/>
<polygon fill="black" stroke="black" points="501.8,-216.71 500.05,-211.71 498.3,-216.71 501.8,-216.71"/>
</g>
<!-- :zgw:object&#45;management&#45;&gt;:zgw:objecten&#45;api -->
<g id="edge39" class="edge">
<title>:zgw:object&#45;management&#45;&gt;:zgw:objecten&#45;api</title>
<path fill="none" stroke="black" d="M484.33,-522.53C484.33,-464.38 484.33,-285 484.33,-285 484.33,-285 431.14,-285 431.14,-285"/>
<polygon fill="black" stroke="black" points="431.14,-283.25 426.14,-285 431.14,-286.75 431.14,-283.25"/>
</g>
<!-- :zgw:object&#45;management&#45;&gt;:zgw:objecttypen&#45;api -->
<g id="edge38" class="edge">
<title>:zgw:object&#45;management&#45;&gt;:zgw:objecttypen&#45;api</title>
<path fill="none" stroke="black" d="M414.69,-522.89C414.69,-522.89 414.69,-477.89 414.69,-477.89"/>
<polygon fill="black" stroke="black" points="416.44,-477.89 414.69,-472.89 412.94,-477.89 416.44,-477.89"/>
</g>
<!-- :web -->
<g id="node26" class="node">
<title>:web</title>
<polygon fill="#f2f2f2" stroke="black" points="565.78,-498.92 565.78,-534.92 619.78,-534.92 619.78,-498.92 565.78,-498.92"/>
<text text-anchor="middle" x="592.78" y="-513.22" font-family="Times,serif" font-size="14.00">:web</text>
</g>
<!-- :zgw:object&#45;management&#45;&gt;:web -->
<g id="edge34" class="edge">
<title>:zgw:object&#45;management&#45;&gt;:web</title>
<path fill="none" stroke="black" d="M515.52,-528C515.52,-528 559.35,-528 559.35,-528"/>
<polygon fill="black" stroke="black" points="559.35,-529.75 564.35,-528 559.35,-526.25 559.35,-529.75"/>
</g>
<!-- :zgw:portaaltaak -->
<g id="node28" class="node">
<title>:zgw:portaaltaak</title>
<polygon fill="#f2f2f2" stroke="black" points="257.36,-783.5 257.36,-819.5 364.36,-819.5 364.36,-783.5 257.36,-783.5"/>
<text text-anchor="middle" x="310.86" y="-797.8" font-family="Times,serif" font-size="14.00">:zgw:portaaltaak</text>
</g>
<!-- :zgw:portaaltaak&#45;&gt;:process&#45;document -->
<g id="edge45" class="edge">
<title>:zgw:portaaltaak&#45;&gt;:process&#45;document</title>
<path fill="none" stroke="black" d="M270.71,-819.11C270.71,-819.11 270.71,-864.11 270.71,-864.11"/>
<polygon fill="black" stroke="black" points="268.96,-864.11 270.71,-869.11 272.46,-864.11 268.96,-864.11"/>
</g>
<!-- :zgw:portaaltaak&#45;&gt;:zgw:zaken&#45;api -->
<g id="edge48" class="edge">
<title>:zgw:portaaltaak&#45;&gt;:zgw:zaken&#45;api</title>
<path fill="none" stroke="black" d="M315.42,-783.57C315.42,-713.1 315.42,-459 315.42,-459 315.42,-459 294.02,-459 294.02,-459"/>
<polygon fill="black" stroke="black" points="294.02,-457.25 289.02,-459 294.02,-460.75 294.02,-457.25"/>
</g>
<!-- :zgw:portaaltaak&#45;&gt;:zgw:notificaties&#45;api -->
<g id="edge47" class="edge">
<title>:zgw:portaaltaak&#45;&gt;:zgw:notificaties&#45;api</title>
<path fill="none" stroke="black" d="M364.13,-801C384.69,-801 403.36,-801 403.36,-801 403.36,-801 403.36,-1053 403.36,-1053 403.36,-1053 386.6,-1053 386.6,-1053"/>
<polygon fill="black" stroke="black" points="386.6,-1051.25 381.6,-1053 386.6,-1054.75 386.6,-1051.25"/>
</g>
<!-- :zgw:portaaltaak&#45;&gt;:zgw:object&#45;management -->
<g id="edge46" class="edge">
<title>:zgw:portaaltaak&#45;&gt;:zgw:object&#45;management</title>
<path fill="none" stroke="black" d="M324.75,-783.53C324.75,-724.45 324.75,-540 324.75,-540 324.75,-540 354.47,-540 354.47,-540"/>
<polygon fill="black" stroke="black" points="354.47,-541.75 359.47,-540 354.47,-538.25 354.47,-541.75"/>
</g>
<!-- :zgw:verzoek -->
<g id="node29" class="node">
<title>:zgw:verzoek</title>
<polygon fill="#f2f2f2" stroke="black" points="334.08,-696.5 334.08,-732.5 423.08,-732.5 423.08,-696.5 334.08,-696.5"/>
<text text-anchor="middle" x="378.58" y="-710.8" font-family="Times,serif" font-size="14.00">:zgw:verzoek</text>
</g>
<!-- :zgw:verzoek&#45;&gt;:process&#45;document -->
<g id="edge49" class="edge">
<title>:zgw:verzoek&#45;&gt;:process&#45;document</title>
<path fill="none" stroke="black" d="M375.16,-732.41C375.16,-776.74 375.16,-888 375.16,-888 375.16,-888 290.17,-888 290.17,-888"/>
<polygon fill="black" stroke="black" points="290.17,-886.25 285.17,-888 290.17,-889.75 290.17,-886.25"/>
</g>
<!-- :zgw:verzoek&#45;&gt;:zgw:catalogi&#45;api -->
<g id="edge51" class="edge">
<title>:zgw:verzoek&#45;&gt;:zgw:catalogi&#45;api</title>
<path fill="none" stroke="black" d="M334.25,-714C326.09,-714 320.09,-714 320.09,-714 320.09,-714 320.09,-390.72 320.09,-390.72"/>
<polygon fill="black" stroke="black" points="321.84,-390.72 320.09,-385.72 318.34,-390.72 321.84,-390.72"/>
</g>
<!-- :zgw:verzoek&#45;&gt;:plugin&#45;authentication:notificaties&#45;api&#45;authentication -->
<g id="edge50" class="edge">
<title>:zgw:verzoek&#45;&gt;:plugin&#45;authentication:notificaties&#45;api&#45;authentication</title>
<path fill="none" stroke="black" d="M385.97,-732.44C385.97,-732.44 385.97,-951.27 385.97,-951.27"/>
<polygon fill="black" stroke="black" points="384.22,-951.27 385.97,-956.27 387.72,-951.27 384.22,-951.27"/>
</g>
<!-- :zgw:verzoek&#45;&gt;:zgw:notificaties&#45;api -->
<g id="edge52" class="edge">
<title>:zgw:verzoek&#45;&gt;:zgw:notificaties&#45;api</title>
<path fill="none" stroke="black" d="M416.51,-732.18C416.51,-804.11 416.51,-1071 416.51,-1071 416.51,-1071 386.92,-1071 386.92,-1071"/>
<polygon fill="black" stroke="black" points="386.92,-1069.25 381.92,-1071 386.92,-1072.75 386.92,-1069.25"/>
</g>
<!-- :zgw:verzoek&#45;&gt;:zgw:object&#45;management -->
<g id="edge53" class="edge">
<title>:zgw:verzoek&#45;&gt;:zgw:object&#45;management</title>
<path fill="none" stroke="black" d="M418.92,-696.53C418.92,-696.53 418.92,-564.88 418.92,-564.88"/>
<polygon fill="black" stroke="black" points="420.67,-564.88 418.92,-559.88 417.17,-564.88 420.67,-564.88"/>
</g>
</g>
</svg>
