<?xml version="1.0" encoding="UTF-8" standalone="no"?>
<!DOCTYPE svg PUBLIC "-//W3C//DTD SVG 1.1//EN"
 "http://www.w3.org/Graphics/SVG/1.1/DTD/svg11.dtd">
<!-- Generated by graphviz version 7.1.0 (20230121.1956)
 -->
<!-- Title: G Pages: 1 -->
<svg width="704pt" height="1785pt"
 viewBox="0.00 0.00 704.03 1785.00" xmlns="http://www.w3.org/2000/svg" xmlns:xlink="http://www.w3.org/1999/xlink">
<g id="graph0" class="graph" transform="scale(1 1) rotate(0) translate(4 1781)">
<title>G</title>
<polygon fill="white" stroke="none" points="-4,4 -4,-1781 700.03,-1781 700.03,4 -4,4"/>
<!-- :audit -->
<g id="node1" class="node">
<title>:audit</title>
<polygon fill="#f2f2f2" stroke="black" points="228.01,-522.5 228.01,-558.5 282.01,-558.5 282.01,-522.5 228.01,-522.5"/>
<text text-anchor="middle" x="255.01" y="-536.8" font-family="Times,serif" font-size="14.00">:audit</text>
</g>
<!-- :contract -->
<g id="node2" class="node">
<title>:contract</title>
<polygon fill="#f2f2f2" stroke="black" points="332.02,-522.5 332.02,-558.5 396.02,-558.5 396.02,-522.5 332.02,-522.5"/>
<text text-anchor="middle" x="364.02" y="-536.8" font-family="Times,serif" font-size="14.00">:contract</text>
</g>
<!-- :audit&#45;&gt;:contract -->
<g id="edge1" class="edge">
<title>:audit&#45;&gt;:contract</title>
<path fill="none" stroke="black" d="M281.96,-540C281.96,-540 325.84,-540 325.84,-540"/>
<polygon fill="black" stroke="black" points="325.84,-541.75 330.84,-540 325.84,-538.25 325.84,-541.75"/>
</g>
<!-- :besluit -->
<g id="node3" class="node">
<title>:besluit</title>
<polygon fill="#f2f2f2" stroke="black" points="122.01,-696.5 122.01,-732.5 178.01,-732.5 178.01,-696.5 122.01,-696.5"/>
<text text-anchor="middle" x="150.01" y="-710.8" font-family="Times,serif" font-size="14.00">:besluit</text>
</g>
<!-- :connector -->
<g id="node4" class="node">
<title>:connector</title>
<polygon fill="#f2f2f2" stroke="black" points="104.01,-522.5 104.01,-558.5 178.01,-558.5 178.01,-522.5 104.01,-522.5"/>
<text text-anchor="middle" x="141.01" y="-536.8" font-family="Times,serif" font-size="14.00">:connector</text>
</g>
<!-- :besluit&#45;&gt;:connector -->
<g id="edge2" class="edge">
<title>:besluit&#45;&gt;:connector</title>
<path fill="none" stroke="black" d="M159.34,-696.53C159.34,-696.53 159.34,-564.88 159.34,-564.88"/>
<polygon fill="black" stroke="black" points="161.09,-564.88 159.34,-559.88 157.59,-564.88 161.09,-564.88"/>
</g>
<!-- :process&#45;document -->
<g id="node5" class="node">
<title>:process&#45;document</title>
<polygon fill="#f2f2f2" stroke="black" points="184.94,-1044.5 184.94,-1080.5 303.94,-1080.5 303.94,-1044.5 184.94,-1044.5"/>
<text text-anchor="middle" x="244.44" y="-1058.8" font-family="Times,serif" font-size="14.00">:process&#45;document</text>
</g>
<!-- :besluit&#45;&gt;:process&#45;document -->
<g id="edge3" class="edge">
<title>:besluit&#45;&gt;:process&#45;document</title>
<path fill="none" stroke="black" d="M122.19,-714C101.75,-714 77.52,-714 77.52,-714 77.52,-714 77.52,-1053 77.52,-1053 77.52,-1053 178.61,-1053 178.61,-1053"/>
<polygon fill="black" stroke="black" points="178.61,-1054.75 183.61,-1053 178.61,-1051.25 178.61,-1054.75"/>
</g>
<!-- :connector&#45;&gt;:contract -->
<g id="edge4" class="edge">
<title>:connector&#45;&gt;:contract</title>
<path fill="none" stroke="black" d="M140.67,-558.39C140.67,-564.11 140.67,-569 140.67,-569 140.67,-569 344.58,-569 344.58,-569 344.58,-569 344.58,-564.9 344.58,-564.9"/>
<polygon fill="black" stroke="black" points="346.33,-564.9 344.58,-559.9 342.83,-564.9 346.33,-564.9"/>
</g>
<!-- :process&#45;document&#45;&gt;:audit -->
<g id="edge7" class="edge">
<title>:process&#45;document&#45;&gt;:audit</title>
<path fill="none" stroke="black" d="M184.97,-1062C132.01,-1062 62.83,-1062 62.83,-1062 62.83,-1062 62.83,-599 62.83,-599 62.83,-599 255.01,-599 255.01,-599 255.01,-599 255.01,-564.88 255.01,-564.88"/>
<polygon fill="black" stroke="black" points="256.76,-564.88 255.01,-559.88 253.26,-564.88 256.76,-564.88"/>
</g>
<!-- :core -->
<g id="node6" class="node">
<title>:core</title>
<polygon fill="#f2f2f2" stroke="black" points="309.43,-783.5 309.43,-819.5 363.43,-819.5 363.43,-783.5 309.43,-783.5"/>
<text text-anchor="middle" x="336.43" y="-797.8" font-family="Times,serif" font-size="14.00">:core</text>
</g>
<!-- :process&#45;document&#45;&gt;:core -->
<g id="edge5" class="edge">
<title>:process&#45;document&#45;&gt;:core</title>
<path fill="none" stroke="black" d="M303.93,-1056C350.24,-1056 406.68,-1056 406.68,-1056 406.68,-1056 406.68,-810 406.68,-810 406.68,-810 369.91,-810 369.91,-810"/>
<polygon fill="black" stroke="black" points="369.91,-808.25 364.91,-810 369.91,-811.75 369.91,-808.25"/>
</g>
<!-- :document -->
<g id="node7" class="node">
<title>:document</title>
<polygon fill="#f2f2f2" stroke="black" points="255.91,-696.5 255.91,-732.5 329.91,-732.5 329.91,-696.5 255.91,-696.5"/>
<text text-anchor="middle" x="292.91" y="-710.8" font-family="Times,serif" font-size="14.00">:document</text>
</g>
<!-- :process&#45;document&#45;&gt;:document -->
<g id="edge6" class="edge">
<title>:process&#45;document&#45;&gt;:document</title>
<path fill="none" stroke="black" d="M303.83,-1068C350.94,-1068 408.93,-1068 408.93,-1068 408.93,-1068 408.93,-753 408.93,-753 408.93,-753 319.67,-753 319.67,-753 319.67,-753 319.67,-738.91 319.67,-738.91"/>
<polygon fill="black" stroke="black" points="321.42,-738.91 319.67,-733.91 317.92,-738.91 321.42,-738.91"/>
</g>
<!-- :value&#45;resolver -->
<g id="node8" class="node">
<title>:value&#45;resolver</title>
<polygon fill="#f2f2f2" stroke="black" points="205.94,-1305.5 205.94,-1341.5 303.94,-1341.5 303.94,-1305.5 205.94,-1305.5"/>
<text text-anchor="middle" x="254.94" y="-1319.8" font-family="Times,serif" font-size="14.00">:value&#45;resolver</text>
</g>
<!-- :process&#45;document&#45;&gt;:value&#45;resolver -->
<g id="edge8" class="edge">
<title>:process&#45;document&#45;&gt;:value&#45;resolver</title>
<path fill="none" stroke="black" d="M220.61,-1080.44C220.61,-1080.44 220.61,-1299.27 220.61,-1299.27"/>
<polygon fill="black" stroke="black" points="218.86,-1299.27 220.61,-1304.27 222.36,-1299.27 218.86,-1299.27"/>
</g>
<!-- :resource -->
<g id="node10" class="node">
<title>:resource</title>
<polygon fill="#f2f2f2" stroke="black" points="379.92,-696.5 379.92,-732.5 445.92,-732.5 445.92,-696.5 379.92,-696.5"/>
<text text-anchor="middle" x="412.92" y="-710.8" font-family="Times,serif" font-size="14.00">:resource</text>
</g>
<!-- :core&#45;&gt;:resource -->
<g id="edge11" class="edge">
<title>:core&#45;&gt;:resource</title>
<path fill="none" stroke="black" d="M363.38,-792C375.59,-792 387.34,-792 387.34,-792 387.34,-792 387.34,-738.99 387.34,-738.99"/>
<polygon fill="black" stroke="black" points="389.09,-738.99 387.34,-733.99 385.59,-738.99 389.09,-738.99"/>
</g>
<!-- :web -->
<g id="node11" class="node">
<title>:web</title>
<polygon fill="#f2f2f2" stroke="black" points="446.02,-609.5 446.02,-645.5 500.02,-645.5 500.02,-609.5 446.02,-609.5"/>
<text text-anchor="middle" x="473.02" y="-623.8" font-family="Times,serif" font-size="14.00">:web</text>
</g>
<!-- :core&#45;&gt;:web -->
<g id="edge12" class="edge">
<title>:core&#45;&gt;:web</title>
<path fill="none" stroke="black" d="M357.15,-783.69C357.15,-741.32 357.15,-638 357.15,-638 357.15,-638 439.64,-638 439.64,-638"/>
<polygon fill="black" stroke="black" points="439.64,-639.75 444.64,-638 439.64,-636.25 439.64,-639.75"/>
</g>
<!-- :document&#45;&gt;:resource -->
<g id="edge14" class="edge">
<title>:document&#45;&gt;:resource</title>
<path fill="none" stroke="black" d="M329.9,-720C329.9,-720 373.41,-720 373.41,-720"/>
<polygon fill="black" stroke="black" points="373.41,-721.75 378.41,-720 373.41,-718.25 373.41,-721.75"/>
</g>
<!-- :data&#45;provider -->
<g id="node12" class="node">
<title>:data&#45;provider</title>
<polygon fill="#f2f2f2" stroke="black" points="374.64,-435.5 374.64,-471.5 467.64,-471.5 467.64,-435.5 374.64,-435.5"/>
<text text-anchor="middle" x="421.14" y="-449.8" font-family="Times,serif" font-size="14.00">:data&#45;provider</text>
</g>
<!-- :document&#45;&gt;:data&#45;provider -->
<g id="edge13" class="edge">
<title>:document&#45;&gt;:data&#45;provider</title>
<path fill="none" stroke="black" d="M310.89,-696.62C310.89,-680.07 310.89,-658 310.89,-658 310.89,-658 420.97,-658 420.97,-658 420.97,-658 420.97,-477.8 420.97,-477.8"/>
<polygon fill="black" stroke="black" points="422.72,-477.8 420.97,-472.8 419.22,-477.8 422.72,-477.8"/>
</g>
<!-- :plugin -->
<g id="node9" class="node">
<title>:plugin</title>
<polygon fill="#f2f2f2" stroke="black" points="359.45,-1218.5 359.45,-1254.5 414.45,-1254.5 414.45,-1218.5 359.45,-1218.5"/>
<text text-anchor="middle" x="386.95" y="-1232.8" font-family="Times,serif" font-size="14.00">:plugin</text>
</g>
<!-- :plugin&#45;&gt;:contract -->
<g id="edge9" class="edge">
<title>:plugin&#45;&gt;:contract</title>
<path fill="none" stroke="black" d="M414.34,-1227C458.9,-1227 542.17,-1227 542.17,-1227 542.17,-1227 542.17,-540 542.17,-540 542.17,-540 402.38,-540 402.38,-540"/>
<polygon fill="black" stroke="black" points="402.38,-538.25 397.38,-540 402.38,-541.75 402.38,-538.25"/>
</g>
<!-- :plugin&#45;&gt;:value&#45;resolver -->
<g id="edge10" class="edge">
<title>:plugin&#45;&gt;:value&#45;resolver</title>
<path fill="none" stroke="black" d="M359.65,-1236C344.6,-1236 328.95,-1236 328.95,-1236 328.95,-1236 328.95,-1317 328.95,-1317 328.95,-1317 310.41,-1317 310.41,-1317"/>
<polygon fill="black" stroke="black" points="310.41,-1315.25 305.41,-1317 310.41,-1318.75 310.41,-1315.25"/>
</g>
<!-- :resource&#45;&gt;:contract -->
<g id="edge15" class="edge">
<title>:resource&#45;&gt;:contract</title>
<path fill="none" stroke="black" d="M387.97,-696.53C387.97,-696.53 387.97,-564.88 387.97,-564.88"/>
<polygon fill="black" stroke="black" points="389.72,-564.88 387.97,-559.88 386.22,-564.88 389.72,-564.88"/>
</g>
<!-- :web&#45;&gt;:contract -->
<g id="edge24" class="edge">
<title>:web&#45;&gt;:contract</title>
<path fill="none" stroke="black" d="M446.04,-616C422.47,-616 391.99,-616 391.99,-616 391.99,-616 391.99,-564.91 391.99,-564.91"/>
<polygon fill="black" stroke="black" points="393.74,-564.91 391.99,-559.91 390.24,-564.91 393.74,-564.91"/>
</g>
<!-- :data&#45;provider&#45;&gt;:web -->
<g id="edge18" class="edge">
<title>:data&#45;provider&#45;&gt;:web</title>
<path fill="none" stroke="black" d="M456.83,-471.47C456.83,-471.47 456.83,-603.12 456.83,-603.12"/>
<polygon fill="black" stroke="black" points="455.08,-603.12 456.83,-608.12 458.58,-603.12 455.08,-603.12"/>
</g>
<!-- :case -->
<g id="node13" class="node">
<title>:case</title>
<polygon fill="#f2f2f2" stroke="black" points="353.95,-1305.5 353.95,-1341.5 407.95,-1341.5 407.95,-1305.5 353.95,-1305.5"/>
<text text-anchor="middle" x="380.95" y="-1319.8" font-family="Times,serif" font-size="14.00">:case</text>
</g>
<!-- :case&#45;&gt;:document -->
<g id="edge16" class="edge">
<title>:case&#45;&gt;:document</title>
<path fill="none" stroke="black" d="M391.78,-1305.75C391.78,-1296.88 391.78,-1288 391.78,-1288 391.78,-1288 503.77,-1288 503.77,-1288 503.77,-1288 503.77,-861 503.77,-861 503.77,-861 292.76,-861 292.76,-861 292.76,-861 292.76,-738.98 292.76,-738.98"/>
<polygon fill="black" stroke="black" points="294.51,-738.98 292.76,-733.98 291.01,-738.98 294.51,-738.98"/>
</g>
<!-- :case&#45;&gt;:value&#45;resolver -->
<g id="edge17" class="edge">
<title>:case&#45;&gt;:value&#45;resolver</title>
<path fill="none" stroke="black" d="M354.23,-1329C354.23,-1329 310.27,-1329 310.27,-1329"/>
<polygon fill="black" stroke="black" points="310.27,-1327.25 305.27,-1329 310.27,-1330.75 310.27,-1327.25"/>
</g>
<!-- :contactmoment -->
<g id="node14" class="node">
<title>:contactmoment</title>
<polygon fill="#f2f2f2" stroke="black" points="177.01,-435.5 177.01,-471.5 282.01,-471.5 282.01,-435.5 177.01,-435.5"/>
<text text-anchor="middle" x="229.51" y="-449.8" font-family="Times,serif" font-size="14.00">:contactmoment</text>
</g>
<!-- :contactmoment&#45;&gt;:connector -->
<g id="edge19" class="edge">
<title>:contactmoment&#45;&gt;:connector</title>
<path fill="none" stroke="black" d="M181.55,-471.42C181.55,-496.76 181.55,-540 181.55,-540 181.55,-540 181.17,-540 181.17,-540"/>
<polygon fill="black" stroke="black" points="184.32,-538.25 179.32,-540 184.32,-541.75 184.32,-538.25"/>
</g>
<!-- :contactmoment&#45;&gt;:core -->
<g id="edge20" class="edge">
<title>:contactmoment&#45;&gt;:core</title>
<path fill="none" stroke="black" d="M185.09,-471.48C185.09,-537.53 185.09,-763 185.09,-763 185.09,-763 314.55,-763 314.55,-763 314.55,-763 314.55,-777.09 314.55,-777.09"/>
<polygon fill="black" stroke="black" points="312.8,-777.09 314.55,-782.09 316.3,-777.09 312.8,-777.09"/>
</g>
<!-- :klant -->
<g id="node15" class="node">
<title>:klant</title>
<polygon fill="#f2f2f2" stroke="black" points="0,-696.5 0,-732.5 54,-732.5 54,-696.5 0,-696.5"/>
<text text-anchor="middle" x="27" y="-710.8" font-family="Times,serif" font-size="14.00">:klant</text>
</g>
<!-- :contactmoment&#45;&gt;:klant -->
<g id="edge21" class="edge">
<title>:contactmoment&#45;&gt;:klant</title>
<path fill="none" stroke="black" d="M177.23,-453C121.14,-453 40.02,-453 40.02,-453 40.02,-453 40.02,-690.01 40.02,-690.01"/>
<polygon fill="black" stroke="black" points="38.27,-690.01 40.02,-695.01 41.77,-690.01 38.27,-690.01"/>
</g>
<!-- :mail -->
<g id="node16" class="node">
<title>:mail</title>
<polygon fill="#f2f2f2" stroke="black" points="265.87,-87.5 265.87,-123.5 319.87,-123.5 319.87,-87.5 265.87,-87.5"/>
<text text-anchor="middle" x="292.87" y="-101.8" font-family="Times,serif" font-size="14.00">:mail</text>
</g>
<!-- :contactmoment&#45;&gt;:mail -->
<g id="edge22" class="edge">
<title>:contactmoment&#45;&gt;:mail</title>
<path fill="none" stroke="black" d="M281.69,-453C312.15,-453 344.64,-453 344.64,-453 344.64,-453 344.64,-105 344.64,-105 344.64,-105 326.18,-105 326.18,-105"/>
<polygon fill="black" stroke="black" points="326.18,-103.25 321.18,-105 326.18,-106.75 326.18,-103.25"/>
</g>
<!-- :mail&#45;&gt;:contract -->
<g id="edge23" class="edge">
<title>:mail&#45;&gt;:contract</title>
<path fill="none" stroke="black" d="M319.87,-96C335.04,-96 350.95,-96 350.95,-96 350.95,-96 350.95,-516.01 350.95,-516.01"/>
<polygon fill="black" stroke="black" points="349.2,-516.01 350.95,-521.01 352.7,-516.01 349.2,-516.01"/>
</g>
<!-- :document&#45;export -->
<g id="node17" class="node">
<title>:document&#45;export</title>
<polygon fill="#f2f2f2" stroke="black" points="413.44,-783.5 413.44,-819.5 526.44,-819.5 526.44,-783.5 413.44,-783.5"/>
<text text-anchor="middle" x="469.94" y="-797.8" font-family="Times,serif" font-size="14.00">:document&#45;export</text>
</g>
<!-- :document&#45;export&#45;&gt;:document -->
<g id="edge25" class="edge">
<title>:document&#45;export&#45;&gt;:document</title>
<path fill="none" stroke="black" d="M424.27,-783.63C424.27,-766.43 424.27,-743 424.27,-743 424.27,-743 324.79,-743 324.79,-743 324.79,-743 324.79,-738.9 324.79,-738.9"/>
<polygon fill="black" stroke="black" points="326.54,-738.9 324.79,-733.9 323.04,-738.9 326.54,-738.9"/>
</g>
<!-- :document&#45;export&#45;&gt;:resource -->
<g id="edge26" class="edge">
<title>:document&#45;export&#45;&gt;:resource</title>
<path fill="none" stroke="black" d="M435.09,-783.89C435.09,-783.89 435.09,-738.89 435.09,-738.89"/>
<polygon fill="black" stroke="black" points="436.84,-738.89 435.09,-733.89 433.34,-738.89 436.84,-738.89"/>
</g>
<!-- :document&#45;generation -->
<g id="node18" class="node">
<title>:document&#45;generation</title>
<polygon fill="#f2f2f2" stroke="black" points="188.63,-609.5 188.63,-645.5 324.63,-645.5 324.63,-609.5 188.63,-609.5"/>
<text text-anchor="middle" x="256.63" y="-623.8" font-family="Times,serif" font-size="14.00">:document&#45;generation</text>
</g>
<!-- :document&#45;generation&#45;&gt;:core -->
<g id="edge27" class="edge">
<title>:document&#45;generation&#45;&gt;:core</title>
<path fill="none" stroke="black" d="M324.62,-631C339.48,-631 350.87,-631 350.87,-631 350.87,-631 350.87,-777.06 350.87,-777.06"/>
<polygon fill="black" stroke="black" points="349.12,-777.06 350.87,-782.06 352.62,-777.06 349.12,-777.06"/>
</g>
<!-- :document&#45;generation&#45;&gt;:document -->
<g id="edge28" class="edge">
<title>:document&#45;generation&#45;&gt;:document</title>
<path fill="none" stroke="black" d="M269.65,-645.11C269.65,-645.11 269.65,-690.11 269.65,-690.11"/>
<polygon fill="black" stroke="black" points="267.9,-690.11 269.65,-695.11 271.4,-690.11 267.9,-690.11"/>
</g>
<!-- :exact&#45;plugin -->
<g id="node19" class="node">
<title>:exact&#45;plugin</title>
<polygon fill="#f2f2f2" stroke="black" points="307.77,-1566.5 307.77,-1602.5 395.77,-1602.5 395.77,-1566.5 307.77,-1566.5"/>
<text text-anchor="middle" x="351.77" y="-1580.8" font-family="Times,serif" font-size="14.00">:exact&#45;plugin</text>
</g>
<!-- :exact&#45;plugin&#45;&gt;:process&#45;document -->
<g id="edge29" class="edge">
<title>:exact&#45;plugin&#45;&gt;:process&#45;document</title>
<path fill="none" stroke="black" d="M308.16,-1590C252.05,-1590 161.7,-1590 161.7,-1590 161.7,-1590 161.7,-1071 161.7,-1071 161.7,-1071 178.67,-1071 178.67,-1071"/>
<polygon fill="black" stroke="black" points="178.67,-1072.75 183.67,-1071 178.67,-1069.25 178.67,-1072.75"/>
</g>
<!-- :exact&#45;plugin&#45;&gt;:plugin -->
<g id="edge30" class="edge">
<title>:exact&#45;plugin&#45;&gt;:plugin</title>
<path fill="none" stroke="black" d="M308.17,-1578C256.99,-1578 179,-1578 179,-1578 179,-1578 179,-1271 179,-1271 179,-1271 375.62,-1271 375.62,-1271 375.62,-1271 375.62,-1260.67 375.62,-1260.67"/>
<polygon fill="black" stroke="black" points="377.37,-1260.67 375.62,-1255.67 373.87,-1260.67 377.37,-1260.67"/>
</g>
<!-- :external&#45;event -->
<g id="node20" class="node">
<title>:external&#45;event</title>
<polygon fill="#f2f2f2" stroke="black" points="57.93,-1131.5 57.93,-1167.5 155.93,-1167.5 155.93,-1131.5 57.93,-1131.5"/>
<text text-anchor="middle" x="106.93" y="-1145.8" font-family="Times,serif" font-size="14.00">:external&#45;event</text>
</g>
<!-- :external&#45;event&#45;&gt;:process&#45;document -->
<g id="edge31" class="edge">
<title>:external&#45;event&#45;&gt;:process&#45;document</title>
<path fill="none" stroke="black" d="M155.7,-1143C173.41,-1143 189.14,-1143 189.14,-1143 189.14,-1143 189.14,-1086.88 189.14,-1086.88"/>
<polygon fill="black" stroke="black" points="190.89,-1086.88 189.14,-1081.88 187.39,-1086.88 190.89,-1086.88"/>
</g>
<!-- :form -->
<g id="node21" class="node">
<title>:form</title>
<polygon fill="#f2f2f2" stroke="black" points="249.94,-1218.5 249.94,-1254.5 303.94,-1254.5 303.94,-1218.5 249.94,-1218.5"/>
<text text-anchor="middle" x="276.94" y="-1232.8" font-family="Times,serif" font-size="14.00">:form</text>
</g>
<!-- :external&#45;event&#45;&gt;:form -->
<g id="edge32" class="edge">
<title>:external&#45;event&#45;&gt;:form</title>
<path fill="none" stroke="black" d="M106.93,-1167.16C106.93,-1189.19 106.93,-1224 106.93,-1224 106.93,-1224 243.49,-1224 243.49,-1224"/>
<polygon fill="black" stroke="black" points="243.49,-1225.75 248.49,-1224 243.49,-1222.25 243.49,-1225.75"/>
</g>
<!-- :form&#45;&gt;:core -->
<g id="edge33" class="edge">
<title>:form&#45;&gt;:core</title>
<path fill="none" stroke="black" d="M250.2,-1230C185.72,-1230 27,-1230 27,-1230 27,-1230 27,-828 27,-828 27,-828 322.93,-828 322.93,-828 322.93,-828 322.93,-825.84 322.93,-825.84"/>
<polygon fill="black" stroke="black" points="324.68,-825.84 322.93,-820.84 321.18,-825.84 324.68,-825.84"/>
</g>
<!-- :form&#45;&gt;:document -->
<g id="edge34" class="edge">
<title>:form&#45;&gt;:document</title>
<path fill="none" stroke="black" d="M250.23,-1236C183.26,-1236 13.5,-1236 13.5,-1236 13.5,-1236 13.5,-773 13.5,-773 13.5,-773 276.09,-773 276.09,-773 276.09,-773 276.09,-738.88 276.09,-738.88"/>
<polygon fill="black" stroke="black" points="277.84,-738.88 276.09,-733.88 274.34,-738.88 277.84,-738.88"/>
</g>
<!-- :form&#45;flow&#45;valtimo -->
<g id="node22" class="node">
<title>:form&#45;flow&#45;valtimo</title>
<polygon fill="#f2f2f2" stroke="black" points="214.95,-1653.5 214.95,-1689.5 337.95,-1689.5 337.95,-1653.5 214.95,-1653.5"/>
<text text-anchor="middle" x="276.45" y="-1667.8" font-family="Times,serif" font-size="14.00">:form&#45;flow&#45;valtimo</text>
</g>
<!-- :form&#45;flow&#45;valtimo&#45;&gt;:value&#45;resolver -->
<g id="edge38" class="edge">
<title>:form&#45;flow&#45;valtimo&#45;&gt;:value&#45;resolver</title>
<path fill="none" stroke="black" d="M223.84,-1653.7C223.84,-1601.76 223.84,-1454 223.84,-1454 223.84,-1454 280.85,-1454 280.85,-1454 280.85,-1454 280.85,-1347.89 280.85,-1347.89"/>
<polygon fill="black" stroke="black" points="282.6,-1347.89 280.85,-1342.89 279.1,-1347.89 282.6,-1347.89"/>
</g>
<!-- :form&#45;flow&#45;valtimo&#45;&gt;:form -->
<g id="edge36" class="edge">
<title>:form&#45;flow&#45;valtimo&#45;&gt;:form</title>
<path fill="none" stroke="black" d="M215.27,-1671C190.42,-1671 167.46,-1671 167.46,-1671 167.46,-1671 167.46,-1242 167.46,-1242 167.46,-1242 243.65,-1242 243.65,-1242"/>
<polygon fill="black" stroke="black" points="243.65,-1243.75 248.65,-1242 243.65,-1240.25 243.65,-1243.75"/>
</g>
<!-- :form&#45;flow -->
<g id="node23" class="node">
<title>:form&#45;flow</title>
<polygon fill="#f2f2f2" stroke="black" points="218.03,-1740.5 218.03,-1776.5 295.03,-1776.5 295.03,-1740.5 218.03,-1740.5"/>
<text text-anchor="middle" x="256.53" y="-1754.8" font-family="Times,serif" font-size="14.00">:form&#45;flow</text>
</g>
<!-- :form&#45;flow&#45;valtimo&#45;&gt;:form&#45;flow -->
<g id="edge35" class="edge">
<title>:form&#45;flow&#45;valtimo&#45;&gt;:form&#45;flow</title>
<path fill="none" stroke="black" d="M256.53,-1689.11C256.53,-1689.11 256.53,-1734.11 256.53,-1734.11"/>
<polygon fill="black" stroke="black" points="254.78,-1734.11 256.53,-1739.11 258.28,-1734.11 254.78,-1734.11"/>
</g>
<!-- :form&#45;link -->
<g id="node24" class="node">
<title>:form&#45;link</title>
<polygon fill="#f2f2f2" stroke="black" points="184.76,-1392.5 184.76,-1428.5 257.76,-1428.5 257.76,-1392.5 184.76,-1392.5"/>
<text text-anchor="middle" x="221.26" y="-1406.8" font-family="Times,serif" font-size="14.00">:form&#45;link</text>
</g>
<!-- :form&#45;flow&#45;valtimo&#45;&gt;:form&#45;link -->
<g id="edge37" class="edge">
<title>:form&#45;flow&#45;valtimo&#45;&gt;:form&#45;link</title>
<path fill="none" stroke="black" d="M219.4,-1653.56C219.4,-1653.56 219.4,-1434.73 219.4,-1434.73"/>
<polygon fill="black" stroke="black" points="221.15,-1434.73 219.4,-1429.73 217.65,-1434.73 221.15,-1434.73"/>
</g>
<!-- :form&#45;link&#45;&gt;:process&#45;document -->
<g id="edge39" class="edge">
<title>:form&#45;link&#45;&gt;:process&#45;document</title>
<path fill="none" stroke="black" d="M193.34,-1392.76C193.34,-1392.76 193.34,-1086.71 193.34,-1086.71"/>
<polygon fill="black" stroke="black" points="195.09,-1086.71 193.34,-1081.71 191.59,-1086.71 195.09,-1086.71"/>
</g>
<!-- :form&#45;link&#45;&gt;:form -->
<g id="edge40" class="edge">
<title>:form&#45;link&#45;&gt;:form</title>
<path fill="none" stroke="black" d="M201.74,-1392.8C201.74,-1350.68 201.74,-1248 201.74,-1248 201.74,-1248 243.7,-1248 243.7,-1248"/>
<polygon fill="black" stroke="black" points="243.7,-1249.75 248.7,-1248 243.7,-1246.25 243.7,-1249.75"/>
</g>
<!-- :resource:temporary&#45;resource&#45;storage -->
<g id="node25" class="node">
<title>:resource:temporary&#45;resource&#45;storage</title>
<polygon fill="#f2f2f2" stroke="black" points="249.95,-1131.5 249.95,-1167.5 469.95,-1167.5 469.95,-1131.5 249.95,-1131.5"/>
<text text-anchor="middle" x="359.95" y="-1145.8" font-family="Times,serif" font-size="14.00">:resource:temporary&#45;resource&#45;storage</text>
</g>
<!-- :form&#45;link&#45;&gt;:resource:temporary&#45;resource&#45;storage -->
<g id="edge41" class="edge">
<title>:form&#45;link&#45;&gt;:resource:temporary&#45;resource&#45;storage</title>
<path fill="none" stroke="black" d="M197.54,-1392.53C197.54,-1334.38 197.54,-1155 197.54,-1155 197.54,-1155 243.76,-1155 243.76,-1155"/>
<polygon fill="black" stroke="black" points="243.76,-1156.75 248.76,-1155 243.76,-1153.25 243.76,-1156.75"/>
</g>
<!-- :resource:temporary&#45;resource&#45;storage&#45;&gt;:contract -->
<g id="edge42" class="edge">
<title>:resource:temporary&#45;resource&#45;storage&#45;&gt;:contract</title>
<path fill="none" stroke="black" d="M404.43,-1131.84C404.43,-1068.01 404.43,-853 404.43,-853 404.43,-853 374.42,-853 374.42,-853 374.42,-853 374.42,-564.71 374.42,-564.71"/>
<polygon fill="black" stroke="black" points="376.17,-564.71 374.42,-559.71 372.67,-564.71 376.17,-564.71"/>
</g>
<!-- :keycloak&#45;iam -->
<g id="node26" class="node">
<title>:keycloak&#45;iam</title>
<polygon fill="#f2f2f2" stroke="black" points="369.88,-261.5 369.88,-297.5 464.88,-297.5 464.88,-261.5 369.88,-261.5"/>
<text text-anchor="middle" x="417.38" y="-275.8" font-family="Times,serif" font-size="14.00">:keycloak&#45;iam</text>
</g>
<!-- :keycloak&#45;iam&#45;&gt;:contract -->
<g id="edge43" class="edge">
<title>:keycloak&#45;iam&#45;&gt;:contract</title>
<path fill="none" stroke="black" d="M370.01,-279C362.56,-279 357.26,-279 357.26,-279 357.26,-279 357.26,-516.01 357.26,-516.01"/>
<polygon fill="black" stroke="black" points="355.51,-516.01 357.26,-521.01 359.01,-516.01 355.51,-516.01"/>
</g>
<!-- :milestones -->
<g id="node27" class="node">
<title>:milestones</title>
<polygon fill="#f2f2f2" stroke="black" points="413.44,-957.5 413.44,-993.5 492.44,-993.5 492.44,-957.5 413.44,-957.5"/>
<text text-anchor="middle" x="452.94" y="-971.8" font-family="Times,serif" font-size="14.00">:milestones</text>
</g>
<!-- :milestones&#45;&gt;:core -->
<g id="edge44" class="edge">
<title>:milestones&#45;&gt;:core</title>
<path fill="none" stroke="black" d="M413.93,-975C412.21,-975 411.19,-975 411.19,-975 411.19,-975 411.19,-801 411.19,-801 411.19,-801 369.93,-801 369.93,-801"/>
<polygon fill="black" stroke="black" points="369.93,-799.25 364.93,-801 369.93,-802.75 369.93,-799.25"/>
</g>
<!-- :milestones&#45;&gt;:web -->
<g id="edge45" class="edge">
<title>:milestones&#45;&gt;:web</title>
<path fill="none" stroke="black" d="M492.19,-975C513,-975 534.3,-975 534.3,-975 534.3,-975 534.3,-633 534.3,-633 534.3,-633 506.24,-633 506.24,-633"/>
<polygon fill="black" stroke="black" points="506.24,-631.25 501.24,-633 506.24,-634.75 506.24,-631.25"/>
</g>
<!-- :notes -->
<g id="node28" class="node">
<title>:notes</title>
<polygon fill="#f2f2f2" stroke="black" points="374.64,-348.5 374.64,-384.5 428.64,-384.5 428.64,-348.5 374.64,-348.5"/>
<text text-anchor="middle" x="401.64" y="-362.8" font-family="Times,serif" font-size="14.00">:notes</text>
</g>
<!-- :notes&#45;&gt;:audit -->
<g id="edge46" class="edge">
<title>:notes&#45;&gt;:audit</title>
<path fill="none" stroke="black" d="M374.79,-372C368.49,-372 363.57,-372 363.57,-372 363.57,-372 363.57,-497 363.57,-497 363.57,-497 255.01,-497 255.01,-497 255.01,-497 255.01,-516.04 255.01,-516.04"/>
<polygon fill="black" stroke="black" points="253.26,-516.04 255.01,-521.04 256.76,-516.04 253.26,-516.04"/>
</g>
<!-- :notes&#45;&gt;:document -->
<g id="edge47" class="edge">
<title>:notes&#45;&gt;:document</title>
<path fill="none" stroke="black" d="M428.41,-360C460.16,-360 508.83,-360 508.83,-360 508.83,-360 508.83,-671 508.83,-671 508.83,-671 283.4,-671 283.4,-671 283.4,-671 283.4,-690.04 283.4,-690.04"/>
<polygon fill="black" stroke="black" points="281.65,-690.04 283.4,-695.04 285.15,-690.04 281.65,-690.04"/>
</g>
<!-- :notes&#45;&gt;:web -->
<g id="edge48" class="edge">
<title>:notes&#45;&gt;:web</title>
<path fill="none" stroke="black" d="M428.55,-372C452.53,-372 483.83,-372 483.83,-372 483.83,-372 483.83,-603.02 483.83,-603.02"/>
<polygon fill="black" stroke="black" points="482.08,-603.02 483.83,-608.02 485.58,-603.02 482.08,-603.02"/>
</g>
<!-- :objects&#45;api -->
<g id="node29" class="node">
<title>:objects&#45;api</title>
<polygon fill="#f2f2f2" stroke="black" points="119.94,-957.5 119.94,-993.5 199.94,-993.5 199.94,-957.5 119.94,-957.5"/>
<text text-anchor="middle" x="159.94" y="-971.8" font-family="Times,serif" font-size="14.00">:objects&#45;api</text>
</g>
<!-- :objects&#45;api&#45;&gt;:connector -->
<g id="edge49" class="edge">
<title>:objects&#45;api&#45;&gt;:connector</title>
<path fill="none" stroke="black" d="M120.03,-969C95.11,-969 67.73,-969 67.73,-969 67.73,-969 67.73,-534 67.73,-534 67.73,-534 97.85,-534 97.85,-534"/>
<polygon fill="black" stroke="black" points="97.85,-535.75 102.85,-534 97.85,-532.25 97.85,-535.75"/>
</g>
<!-- :objects&#45;api&#45;&gt;:process&#45;document -->
<g id="edge50" class="edge">
<title>:objects&#45;api&#45;&gt;:process&#45;document</title>
<path fill="none" stroke="black" d="M192.44,-993.11C192.44,-993.11 192.44,-1038.11 192.44,-1038.11"/>
<polygon fill="black" stroke="black" points="190.69,-1038.11 192.44,-1043.11 194.19,-1038.11 190.69,-1038.11"/>
</g>
<!-- :objects&#45;api&#45;&gt;:value&#45;resolver -->
<g id="edge52" class="edge">
<title>:objects&#45;api&#45;&gt;:value&#45;resolver</title>
<path fill="none" stroke="black" d="M173.23,-993.21C173.23,-1064.02 173.23,-1323 173.23,-1323 173.23,-1323 199.48,-1323 199.48,-1323"/>
<polygon fill="black" stroke="black" points="199.48,-1324.75 204.48,-1323 199.48,-1321.25 199.48,-1324.75"/>
</g>
<!-- :objects&#45;api&#45;&gt;:klant -->
<g id="edge51" class="edge">
<title>:objects&#45;api&#45;&gt;:klant</title>
<path fill="none" stroke="black" d="M120.17,-981C85.42,-981 40.5,-981 40.5,-981 40.5,-981 40.5,-738.91 40.5,-738.91"/>
<polygon fill="black" stroke="black" points="42.25,-738.91 40.5,-733.91 38.75,-738.91 42.25,-738.91"/>
</g>
<!-- :plugin&#45;authentication -->
<g id="node30" class="node">
<title>:plugin&#45;authentication</title>
<polygon fill="#f2f2f2" stroke="black" points="457.96,-1566.5 457.96,-1602.5 593.96,-1602.5 593.96,-1566.5 457.96,-1566.5"/>
<text text-anchor="middle" x="525.96" y="-1580.8" font-family="Times,serif" font-size="14.00">:plugin&#45;authentication</text>
</g>
<!-- :plugin&#45;authentication&#45;&gt;:plugin -->
<g id="edge53" class="edge">
<title>:plugin&#45;authentication&#45;&gt;:plugin</title>
<path fill="none" stroke="black" d="M582.29,-1566.74C582.29,-1495.72 582.29,-1236 582.29,-1236 582.29,-1236 420.63,-1236 420.63,-1236"/>
<polygon fill="black" stroke="black" points="420.63,-1234.25 415.63,-1236 420.63,-1237.75 420.63,-1234.25"/>
</g>
<!-- :plugin&#45;valtimo -->
<g id="node31" class="node">
<title>:plugin&#45;valtimo</title>
<polygon fill="#f2f2f2" stroke="black" points="457.96,-1305.5 457.96,-1341.5 558.96,-1341.5 558.96,-1305.5 457.96,-1305.5"/>
<text text-anchor="middle" x="508.46" y="-1319.8" font-family="Times,serif" font-size="14.00">:plugin&#45;valtimo</text>
</g>
<!-- :plugin&#45;valtimo&#45;&gt;:core -->
<g id="edge55" class="edge">
<title>:plugin&#45;valtimo&#45;&gt;:core</title>
<path fill="none" stroke="black" d="M515.11,-1305.62C515.11,-1218.75 515.11,-845 515.11,-845 515.11,-845 336.43,-845 336.43,-845 336.43,-845 336.43,-825.96 336.43,-825.96"/>
<polygon fill="black" stroke="black" points="338.18,-825.96 336.43,-820.96 334.68,-825.96 338.18,-825.96"/>
</g>
<!-- :plugin&#45;valtimo&#45;&gt;:plugin -->
<g id="edge54" class="edge">
<title>:plugin&#45;valtimo&#45;&gt;:plugin</title>
<path fill="none" stroke="black" d="M463.95,-1305.69C463.95,-1282.53 463.95,-1245 463.95,-1245 463.95,-1245 420.83,-1245 420.83,-1245"/>
<polygon fill="black" stroke="black" points="420.83,-1243.25 415.83,-1245 420.83,-1246.75 420.83,-1243.25"/>
</g>
<!-- :search -->
<g id="node32" class="node">
<title>:search</title>
<polygon fill="#f2f2f2" stroke="black" points="550.03,-609.5 550.03,-645.5 605.03,-645.5 605.03,-609.5 550.03,-609.5"/>
<text text-anchor="middle" x="577.53" y="-623.8" font-family="Times,serif" font-size="14.00">:search</text>
</g>
<!-- :search&#45;&gt;:web -->
<g id="edge56" class="edge">
<title>:search&#45;&gt;:web</title>
<path fill="none" stroke="black" d="M550.07,-621C550.07,-621 506.45,-621 506.45,-621"/>
<polygon fill="black" stroke="black" points="506.45,-619.25 501.45,-621 506.45,-622.75 506.45,-619.25"/>
</g>
<!-- :document&#45;generation:smartdocuments -->
<g id="node33" class="node">
<title>:document&#45;generation:smartdocuments</title>
<polygon fill="#f2f2f2" stroke="black" points="172.18,-870.5 172.18,-906.5 402.18,-906.5 402.18,-870.5 172.18,-870.5"/>
<text text-anchor="middle" x="287.18" y="-884.8" font-family="Times,serif" font-size="14.00">:document&#45;generation:smartdocuments</text>
</g>
<!-- :document&#45;generation:smartdocuments&#45;&gt;:connector -->
<g id="edge57" class="edge">
<title>:document&#45;generation:smartdocuments&#45;&gt;:connector</title>
<path fill="none" stroke="black" d="M172.36,-888C121.35,-888 72.63,-888 72.63,-888 72.63,-888 72.63,-546 72.63,-546 72.63,-546 97.5,-546 97.5,-546"/>
<polygon fill="black" stroke="black" points="97.5,-547.75 102.5,-546 97.5,-544.25 97.5,-547.75"/>
</g>
<!-- :document&#45;generation:smartdocuments&#45;&gt;:process&#45;document -->
<g id="edge59" class="edge">
<title>:document&#45;generation:smartdocuments&#45;&gt;:process&#45;document</title>
<path fill="none" stroke="black" d="M251.94,-906.47C251.94,-906.47 251.94,-1038.12 251.94,-1038.12"/>
<polygon fill="black" stroke="black" points="250.19,-1038.12 251.94,-1043.12 253.69,-1038.12 250.19,-1038.12"/>
</g>
<!-- :document&#45;generation:smartdocuments&#45;&gt;:value&#45;resolver -->
<g id="edge62" class="edge">
<title>:document&#45;generation:smartdocuments&#45;&gt;:value&#45;resolver</title>
<path fill="none" stroke="black" d="M336.69,-906.3C336.69,-958.24 336.69,-1106 336.69,-1106 336.69,-1106 235.28,-1106 235.28,-1106 235.28,-1106 235.28,-1299.19 235.28,-1299.19"/>
<polygon fill="black" stroke="black" points="233.53,-1299.19 235.28,-1304.19 237.03,-1299.19 233.53,-1299.19"/>
</g>
<!-- :document&#45;generation:smartdocuments&#45;&gt;:resource -->
<g id="edge60" class="edge">
<title>:document&#45;generation:smartdocuments&#45;&gt;:resource</title>
<path fill="none" stroke="black" d="M394.76,-870.53C394.76,-870.53 394.76,-738.88 394.76,-738.88"/>
<polygon fill="black" stroke="black" points="396.51,-738.88 394.76,-733.88 393.01,-738.88 396.51,-738.88"/>
</g>
<!-- :document&#45;generation:smartdocuments&#45;&gt;:document&#45;generation -->
<g id="edge58" class="edge">
<title>:document&#45;generation:smartdocuments&#45;&gt;:document&#45;generation</title>
<path fill="none" stroke="black" d="M368.93,-870.67C368.93,-811.14 368.93,-623 368.93,-623 368.93,-623 331.06,-623 331.06,-623"/>
<polygon fill="black" stroke="black" points="331.06,-621.25 326.06,-623 331.06,-624.75 331.06,-621.25"/>
</g>
<!-- :document&#45;generation:smartdocuments&#45;&gt;:resource:temporary&#45;resource&#45;storage -->
<g id="edge61" class="edge">
<title>:document&#45;generation:smartdocuments&#45;&gt;:resource:temporary&#45;resource&#45;storage</title>
<path fill="none" stroke="black" d="M369.43,-906.44C369.43,-906.44 369.43,-1125.27 369.43,-1125.27"/>
<polygon fill="black" stroke="black" points="367.68,-1125.27 369.43,-1130.27 371.18,-1125.27 367.68,-1125.27"/>
</g>
<!-- :haalcentraal:haalcentraal&#45;brp -->
<g id="node34" class="node">
<title>:haalcentraal:haalcentraal&#45;brp</title>
<polygon fill="#f2f2f2" stroke="black" points="82.42,-783.5 82.42,-819.5 259.42,-819.5 259.42,-783.5 82.42,-783.5"/>
<text text-anchor="middle" x="170.92" y="-797.8" font-family="Times,serif" font-size="14.00">:haalcentraal:haalcentraal&#45;brp</text>
</g>
<!-- :haalcentraal:haalcentraal&#45;brp&#45;&gt;:connector -->
<g id="edge64" class="edge">
<title>:haalcentraal:haalcentraal&#45;brp&#45;&gt;:connector</title>
<path fill="none" stroke="black" d="M113.01,-783.56C113.01,-783.56 113.01,-564.73 113.01,-564.73"/>
<polygon fill="black" stroke="black" points="114.76,-564.73 113.01,-559.73 111.26,-564.73 114.76,-564.73"/>
</g>
<!-- :haalcentraal:haalcentraal&#45;brp&#45;&gt;:core -->
<g id="edge63" class="edge">
<title>:haalcentraal:haalcentraal&#45;brp&#45;&gt;:core</title>
<path fill="none" stroke="black" d="M259.01,-801C259.01,-801 303.27,-801 303.27,-801"/>
<polygon fill="black" stroke="black" points="303.27,-802.75 308.27,-801 303.27,-799.25 303.27,-802.75"/>
</g>
<!-- :mail:local&#45;mail -->
<g id="node35" class="node">
<title>:mail:local&#45;mail</title>
<polygon fill="#f2f2f2" stroke="black" points="164.12,-0.5 164.12,-36.5 268.12,-36.5 268.12,-0.5 164.12,-0.5"/>
<text text-anchor="middle" x="216.12" y="-14.8" font-family="Times,serif" font-size="14.00">:mail:local&#45;mail</text>
</g>
<!-- :mail:local&#45;mail&#45;&gt;:mail -->
<g id="edge65" class="edge">
<title>:mail:local&#45;mail&#45;&gt;:mail</title>
<path fill="none" stroke="black" d="M267.81,-12C277.57,-12 284.79,-12 284.79,-12 284.79,-12 284.79,-81.4 284.79,-81.4"/>
<polygon fill="black" stroke="black" points="283.04,-81.4 284.79,-86.4 286.54,-81.4 283.04,-81.4"/>
</g>
<!-- :plugin&#45;authentication:notificaties&#45;api&#45;authentication -->
<g id="node36" class="node">
<title>:plugin&#45;authentication:notificaties&#45;api&#45;authentication</title>
<polygon fill="#f2f2f2" stroke="black" points="228.29,-1479.5 228.29,-1515.5 530.29,-1515.5 530.29,-1479.5 228.29,-1479.5"/>
<text text-anchor="middle" x="379.29" y="-1493.8" font-family="Times,serif" font-size="14.00">:plugin&#45;authentication:notificaties&#45;api&#45;authentication</text>
</g>
<!-- :plugin&#45;authentication:notificaties&#45;api&#45;authentication&#45;&gt;:core -->
<g id="edge66" class="edge">
<title>:plugin&#45;authentication:notificaties&#45;api&#45;authentication&#45;&gt;:core</title>
<path fill="none" stroke="black" d="M530.05,-1497C553.76,-1497 570.62,-1497 570.62,-1497 570.62,-1497 570.62,-836 570.62,-836 570.62,-836 349.93,-836 349.93,-836 349.93,-836 349.93,-825.67 349.93,-825.67"/>
<polygon fill="black" stroke="black" points="351.68,-825.67 349.93,-820.67 348.18,-825.67 351.68,-825.67"/>
</g>
<!-- :document&#45;generation:local&#45;document&#45;generation -->
<g id="node37" class="node">
<title>:document&#45;generation:local&#45;document&#45;generation</title>
<polygon fill="#f2f2f2" stroke="black" points="26.04,-261.5 26.04,-297.5 312.04,-297.5 312.04,-261.5 26.04,-261.5"/>
<text text-anchor="middle" x="169.04" y="-275.8" font-family="Times,serif" font-size="14.00">:document&#45;generation:local&#45;document&#45;generation</text>
</g>
<!-- :document&#45;generation:local&#45;document&#45;generation&#45;&gt;:document&#45;generation -->
<g id="edge67" class="edge">
<title>:document&#45;generation:local&#45;document&#45;generation&#45;&gt;:document&#45;generation</title>
<path fill="none" stroke="black" d="M93.21,-297.21C93.21,-368.02 93.21,-627 93.21,-627 93.21,-627 182.23,-627 182.23,-627"/>
<polygon fill="black" stroke="black" points="182.23,-628.75 187.23,-627 182.23,-625.25 182.23,-628.75"/>
</g>
<!-- :resource:local&#45;resource -->
<g id="node38" class="node">
<title>:resource:local&#45;resource</title>
<polygon fill="#f2f2f2" stroke="black" points="550.03,-696.5 550.03,-732.5 696.03,-732.5 696.03,-696.5 550.03,-696.5"/>
<text text-anchor="middle" x="623.03" y="-710.8" font-family="Times,serif" font-size="14.00">:resource:local&#45;resource</text>
</g>
<!-- :resource:local&#45;resource&#45;&gt;:resource -->
<g id="edge68" class="edge">
<title>:resource:local&#45;resource&#45;&gt;:resource</title>
<path fill="none" stroke="black" d="M550.14,-714C550.14,-714 452.24,-714 452.24,-714"/>
<polygon fill="black" stroke="black" points="452.24,-712.25 447.24,-714 452.24,-715.75 452.24,-712.25"/>
</g>
<!-- :mail:flowmailer -->
<g id="node39" class="node">
<title>:mail:flowmailer</title>
<polygon fill="#f2f2f2" stroke="black" points="215.63,-348.5 215.63,-384.5 324.63,-384.5 324.63,-348.5 215.63,-348.5"/>
<text text-anchor="middle" x="270.13" y="-362.8" font-family="Times,serif" font-size="14.00">:mail:flowmailer</text>
</g>
<!-- :mail:flowmailer&#45;&gt;:connector -->
<g id="edge70" class="edge">
<title>:mail:flowmailer&#45;&gt;:connector</title>
<path fill="none" stroke="black" d="M215.87,-366C185.1,-366 152.68,-366 152.68,-366 152.68,-366 152.68,-516.29 152.68,-516.29"/>
<polygon fill="black" stroke="black" points="150.93,-516.29 152.68,-521.29 154.43,-516.29 150.93,-516.29"/>
</g>
<!-- :mail:flowmailer&#45;&gt;:document -->
<g id="edge71" class="edge">
<title>:mail:flowmailer&#45;&gt;:document</title>
<path fill="none" stroke="black" d="M296.22,-384.33C296.22,-437.13 296.22,-589 296.22,-589 296.22,-589 338.3,-589 338.3,-589 338.3,-589 338.3,-708 338.3,-708 338.3,-708 336.06,-708 336.06,-708"/>
<polygon fill="black" stroke="black" points="336.06,-706.25 331.06,-708 336.06,-709.75 336.06,-706.25"/>
</g>
<!-- :mail:flowmailer&#45;&gt;:resource -->
<g id="edge72" class="edge">
<title>:mail:flowmailer&#45;&gt;:resource</title>
<path fill="none" stroke="black" d="M310.43,-384.25C310.43,-435.32 310.43,-579 310.43,-579 310.43,-579 383.94,-579 383.94,-579 383.94,-579 383.94,-689.99 383.94,-689.99"/>
<polygon fill="black" stroke="black" points="382.19,-689.99 383.94,-694.99 385.69,-689.99 382.19,-689.99"/>
</g>
<!-- :mail:flowmailer&#45;&gt;:mail -->
<g id="edge69" class="edge">
<title>:mail:flowmailer&#45;&gt;:mail</title>
<path fill="none" stroke="black" d="M324.53,-360C332.63,-360 338.33,-360 338.33,-360 338.33,-360 338.33,-114 338.33,-114 338.33,-114 326.35,-114 326.35,-114"/>
<polygon fill="black" stroke="black" points="326.35,-112.25 321.35,-114 326.35,-115.75 326.35,-112.25"/>
</g>
<!-- :mail:mandrill -->
<g id="node40" class="node">
<title>:mail:mandrill</title>
<polygon fill="#f2f2f2" stroke="black" points="318.13,-0.5 318.13,-36.5 413.13,-36.5 413.13,-0.5 318.13,-0.5"/>
<text text-anchor="middle" x="365.63" y="-14.8" font-family="Times,serif" font-size="14.00">:mail:mandrill</text>
</g>
<!-- :mail:mandrill&#45;&gt;:mail -->
<g id="edge73" class="edge">
<title>:mail:mandrill&#45;&gt;:mail</title>
<path fill="none" stroke="black" d="M318.32,-24C308.7,-24 301.46,-24 301.46,-24 301.46,-24 301.46,-81.3 301.46,-81.3"/>
<polygon fill="black" stroke="black" points="299.71,-81.3 301.46,-86.3 303.21,-81.3 299.71,-81.3"/>
</g>
<!-- :mail:wordpress&#45;mail -->
<g id="node41" class="node">
<title>:mail:wordpress&#45;mail</title>
<polygon fill="#f2f2f2" stroke="black" points="185.87,-174.5 185.87,-210.5 319.87,-210.5 319.87,-174.5 185.87,-174.5"/>
<text text-anchor="middle" x="252.87" y="-188.8" font-family="Times,serif" font-size="14.00">:mail:wordpress&#45;mail</text>
</g>
<!-- :mail:wordpress&#45;mail&#45;&gt;:connector -->
<g id="edge75" class="edge">
<title>:mail:wordpress&#45;mail&#45;&gt;:connector</title>
<path fill="none" stroke="black" d="M315.95,-210.37C315.95,-246.11 315.95,-323 315.95,-323 315.95,-323 128.34,-323 128.34,-323 128.34,-323 128.34,-516.19 128.34,-516.19"/>
<polygon fill="black" stroke="black" points="126.59,-516.19 128.34,-521.19 130.09,-516.19 126.59,-516.19"/>
</g>
<!-- :mail:wordpress&#45;mail&#45;&gt;:document -->
<g id="edge76" class="edge">
<title>:mail:wordpress&#45;mail&#45;&gt;:document</title>
<path fill="none" stroke="black" d="M319.68,-192C398.12,-192 517.64,-192 517.64,-192 517.64,-192 517.64,-683 517.64,-683 517.64,-683 297.14,-683 297.14,-683 297.14,-683 297.14,-690.03 297.14,-690.03"/>
<polygon fill="black" stroke="black" points="295.39,-690.03 297.14,-695.03 298.89,-690.03 295.39,-690.03"/>
</g>
<!-- :mail:wordpress&#45;mail&#45;&gt;:mail -->
<g id="edge74" class="edge">
<title>:mail:wordpress&#45;mail&#45;&gt;:mail</title>
<path fill="none" stroke="black" d="M292.87,-174.89C292.87,-174.89 292.87,-129.89 292.87,-129.89"/>
<polygon fill="black" stroke="black" points="294.62,-129.89 292.87,-124.89 291.12,-129.89 294.62,-129.89"/>
</g>
</g>
</svg>
